<svg width="135" height="27" viewBox="0 0 135 27" fill="none" xmlns="http://www.w3.org/2000/svg">
<path d="M0.77 17.3596C0.77 15.849 1.10733 14.4996 1.782 13.3116C2.47133 12.109 3.40267 11.1776 4.576 10.5176C5.764 9.84296 7.09133 9.50563 8.558 9.50563C10.274 9.50563 11.7773 9.94563 13.068 10.8256C14.3587 11.7056 15.2607 12.923 15.774 14.4776H12.232C11.88 13.7443 11.3813 13.1943 10.736 12.8276C10.1053 12.461 9.372 12.2776 8.536 12.2776C7.64133 12.2776 6.842 12.4903 6.138 12.9156C5.44867 13.3263 4.906 13.913 4.51 14.6756C4.12867 15.4383 3.938 16.333 3.938 17.3596C3.938 18.3716 4.12867 19.2663 4.51 20.0436C4.906 20.8063 5.44867 21.4003 6.138 21.8256C6.842 22.2363 7.64133 22.4416 8.536 22.4416C9.372 22.4416 10.1053 22.2583 10.736 21.8916C11.3813 21.5103 11.88 20.953 12.232 20.2196H15.774C15.2607 21.789 14.3587 23.0136 13.068 23.8936C11.792 24.759 10.2887 25.1916 8.558 25.1916C7.09133 25.1916 5.764 24.8616 4.576 24.2016C3.40267 23.527 2.47133 22.5956 1.782 21.4076C1.10733 20.2196 0.77 18.8703 0.77 17.3596ZM19.9667 11.4196C19.4241 11.4196 18.9694 11.251 18.6027 10.9136C18.2507 10.5616 18.0747 10.129 18.0747 9.61563C18.0747 9.1023 18.2507 8.67696 18.6027 8.33963C18.9694 7.98763 19.4241 7.81163 19.9667 7.81163C20.5094 7.81163 20.9567 7.98763 21.3087 8.33963C21.6754 8.67696 21.8587 9.1023 21.8587 9.61563C21.8587 10.129 21.6754 10.5616 21.3087 10.9136C20.9567 11.251 20.5094 11.4196 19.9667 11.4196ZM21.4847 12.8716V25.0596H18.4047V12.8716H21.4847ZM31.2818 12.6956C32.7338 12.6956 33.9071 13.1576 34.8018 14.0816C35.6964 14.991 36.1438 16.267 36.1438 17.9096V25.0596H33.0638V18.3276C33.0638 17.3596 32.8218 16.619 32.3378 16.1056C31.8538 15.5776 31.1938 15.3136 30.3578 15.3136C29.5071 15.3136 28.8324 15.5776 28.3338 16.1056C27.8498 16.619 27.6078 17.3596 27.6078 18.3276V25.0596H24.5278V12.8716H27.6078V14.3896C28.0184 13.8616 28.5391 13.451 29.1698 13.1576C29.8151 12.8496 30.5191 12.6956 31.2818 12.6956ZM50.4027 18.7016C50.4027 19.1416 50.3734 19.5376 50.3147 19.8896H41.4047C41.478 20.7696 41.786 21.459 42.3287 21.9576C42.8714 22.4563 43.5387 22.7056 44.3307 22.7056C45.4747 22.7056 46.2887 22.2143 46.7727 21.2316H50.0947C49.7427 22.405 49.068 23.373 48.0707 24.1356C47.0734 24.8836 45.8487 25.2576 44.3967 25.2576C43.2234 25.2576 42.1674 25.001 41.2287 24.4876C40.3047 23.9596 39.5787 23.219 39.0507 22.2656C38.5374 21.3123 38.2807 20.2123 38.2807 18.9656C38.2807 17.7043 38.5374 16.597 39.0507 15.6436C39.564 14.6903 40.2827 13.957 41.2067 13.4436C42.1307 12.9303 43.194 12.6736 44.3967 12.6736C45.5554 12.6736 46.5894 12.923 47.4987 13.4216C48.4227 13.9203 49.134 14.6316 49.6327 15.5556C50.146 16.465 50.4027 17.5136 50.4027 18.7016ZM47.2127 17.8216C47.198 17.0296 46.912 16.399 46.3547 15.9296C45.7974 15.4456 45.1154 15.2036 44.3087 15.2036C43.546 15.2036 42.9007 15.4383 42.3727 15.9076C41.8594 16.3623 41.544 17.0003 41.4267 17.8216H47.2127ZM46.7507 9.65963L41.6907 11.9696V9.76963L46.7507 7.15163V9.65963Z" fill="white"/>
<path d="M64.711 9.854V26H60.778V16.317L57.167 26H53.993L50.359 16.294V26H46.426V9.854H51.072L55.603 21.032L60.088 9.854H64.711ZM66.7573 19.56C66.7573 18.2413 67.0026 17.0837 67.4933 16.087C67.9993 15.0903 68.6816 14.3237 69.5403 13.787C70.3989 13.2503 71.3573 12.982 72.4153 12.982C73.3199 12.982 74.1096 13.166 74.7843 13.534C75.4743 13.902 76.0033 14.385 76.3713 14.983V13.166H80.3043V26H76.3713V24.183C75.9879 24.781 75.4513 25.264 74.7613 25.632C74.0866 26 73.2969 26.184 72.3923 26.184C71.3496 26.184 70.3989 25.9157 69.5403 25.379C68.6816 24.827 67.9993 24.0527 67.4933 23.056C67.0026 22.044 66.7573 20.8787 66.7573 19.56ZM76.3713 19.583C76.3713 18.6017 76.0953 17.8273 75.5433 17.26C75.0066 16.6927 74.3473 16.409 73.5653 16.409C72.7833 16.409 72.1163 16.6927 71.5643 17.26C71.0276 17.812 70.7593 18.5787 70.7593 19.56C70.7593 20.5413 71.0276 21.3233 71.5643 21.906C72.1163 22.4733 72.7833 22.757 73.5653 22.757C74.3473 22.757 75.0066 22.4733 75.5433 21.906C76.0953 21.3387 76.3713 20.5643 76.3713 19.583ZM88.3706 26.184C87.2513 26.184 86.2546 25.9923 85.3806 25.609C84.5066 25.2257 83.8166 24.7043 83.3106 24.045C82.8046 23.3703 82.521 22.619 82.4596 21.791H86.3466C86.3926 22.2357 86.5996 22.596 86.9676 22.872C87.3356 23.148 87.788 23.286 88.3246 23.286C88.8153 23.286 89.191 23.194 89.4516 23.01C89.7276 22.8107 89.8656 22.5577 89.8656 22.251C89.8656 21.883 89.674 21.6147 89.2906 21.446C88.9073 21.262 88.2863 21.0627 87.4276 20.848C86.5076 20.6333 85.741 20.411 85.1276 20.181C84.5143 19.9357 83.9853 19.56 83.5406 19.054C83.096 18.5327 82.8736 17.835 82.8736 16.961C82.8736 16.225 83.073 15.558 83.4716 14.96C83.8856 14.3467 84.4836 13.8637 85.2656 13.511C86.063 13.1583 87.006 12.982 88.0946 12.982C89.7046 12.982 90.9696 13.3807 91.8896 14.178C92.825 14.9753 93.3616 16.0333 93.4996 17.352H89.8656C89.8043 16.9073 89.605 16.5547 89.2676 16.294C88.9456 16.0333 88.5163 15.903 87.9796 15.903C87.5196 15.903 87.167 15.995 86.9216 16.179C86.6763 16.3477 86.5536 16.5853 86.5536 16.892C86.5536 17.26 86.7453 17.536 87.1286 17.72C87.5273 17.904 88.1406 18.088 88.9686 18.272C89.9193 18.5173 90.6936 18.7627 91.2916 19.008C91.8896 19.238 92.411 19.6213 92.8556 20.158C93.3156 20.6793 93.5533 21.3847 93.5686 22.274C93.5686 23.0253 93.354 23.7 92.9246 24.298C92.5106 24.8807 91.905 25.3407 91.1076 25.678C90.3256 26.0153 89.4133 26.184 88.3706 26.184ZM103.128 22.665V26H101.127C99.7008 26 98.5892 25.655 97.7918 24.965C96.9945 24.2597 96.5958 23.1173 96.5958 21.538V16.432H95.0318V13.166H96.5958V10.038H100.529V13.166H103.105V16.432H100.529V21.584C100.529 21.9673 100.621 22.2433 100.805 22.412C100.989 22.5807 101.295 22.665 101.725 22.665H103.128ZM117.417 19.376C117.417 19.744 117.394 20.1273 117.348 20.526H108.447C108.508 21.3233 108.761 21.9367 109.206 22.366C109.666 22.78 110.225 22.987 110.885 22.987C111.866 22.987 112.548 22.573 112.932 21.745H117.118C116.903 22.5883 116.512 23.3473 115.945 24.022C115.393 24.6967 114.695 25.2257 113.852 25.609C113.008 25.9923 112.065 26.184 111.023 26.184C109.765 26.184 108.646 25.9157 107.665 25.379C106.683 24.8423 105.917 24.0757 105.365 23.079C104.813 22.0823 104.537 20.917 104.537 19.583C104.537 18.249 104.805 17.0837 105.342 16.087C105.894 15.0903 106.66 14.3237 107.642 13.787C108.623 13.2503 109.75 12.982 111.023 12.982C112.265 12.982 113.369 13.2427 114.335 13.764C115.301 14.2853 116.052 15.029 116.589 15.995C117.141 16.961 117.417 18.088 117.417 19.376ZM113.392 18.341C113.392 17.6663 113.162 17.1297 112.702 16.731C112.242 16.3323 111.667 16.133 110.977 16.133C110.317 16.133 109.758 16.3247 109.298 16.708C108.853 17.0913 108.577 17.6357 108.47 18.341H113.392ZM123.424 15.305C123.884 14.5997 124.459 14.0477 125.149 13.649C125.839 13.235 126.606 13.028 127.449 13.028V17.191H126.368C125.387 17.191 124.651 17.4057 124.16 17.835C123.67 18.249 123.424 18.985 123.424 20.043V26H119.491V13.166H123.424V15.305Z" fill="#A40000"/>
</svg>
